<?xml version="1.0" encoding="iso-8859-1"?><!-- Generator: Adobe Illustrator 21.1.0, SVG Export Plug-In . SVG Version: 6.00 Build 0)  --><svg xmlns="http://www.w3.org/2000/svg" xmlns:xlink="http://www.w3.org/1999/xlink" viewBox="0 0 50 50" width="40px" height="40px"><path style="fill:none;stroke:#000000;stroke-width:2;stroke-linecap:round;stroke-linejoin:round;stroke-miterlimit:10;" d="M9,45h32c2.209,0,4-1.791,4-4V9c0-2.209-1.791-4-4-4H9C6.791,5,5,6.791,5,9v32C5,43.209,6.791,45,9,45z"/><path style="fill:none;stroke:#000000;stroke-width:2;stroke-miterlimit:10;" d="M25,9c-4.419,0-8,3.581-8,8s3.581,8,8,8s8-3.581,8-8S29.419,9,25,9z"/><circle style="fill:none;stroke:#000000;stroke-width:2;stroke-miterlimit:10;" cx="25" cy="17" r="4"/><path style="fill:none;stroke:#000000;stroke-width:2;stroke-miterlimit:10;" d="M29.247,32.419c1.739-0.477,3.393-1.239,4.897-2.288c0.905-0.632,1.128-1.879,0.496-2.785c-0.631-0.905-1.878-1.126-2.785-0.497C29.84,28.257,27.469,29,25,29c-2.463,0-4.829-0.74-6.843-2.14c-0.906-0.631-2.154-0.406-2.783,0.5c-0.631,0.907-0.407,2.153,0.5,2.784c1.499,1.042,3.147,1.799,4.879,2.275l-5.167,5.167c-0.781,0.781-0.781,2.047,0,2.828C15.977,40.805,16.488,41,17,41s1.023-0.195,1.414-0.586L25,33.828l6.586,6.586C31.977,40.805,32.488,41,33,41s1.023-0.195,1.414-0.586c0.781-0.781,0.781-2.047,0-2.828L29.247,32.419z"/></svg>