<svg width="320" height="281" viewBox="0 0 320 281" fill="none" xmlns="http://www.w3.org/2000/svg">
<path d="M290.547 29.7744C283.013 22.2372 274.068 16.2582 264.223 12.1789C254.378 8.09962 243.826 6 233.169 6C222.512 6 211.96 8.09962 202.115 12.1789C192.27 16.2582 183.325 22.2372 175.792 29.7744L160.157 45.4094L144.522 29.7744C129.304 14.557 108.665 6.00789 87.144 6.00789C65.6233 6.00789 44.984 14.557 29.7665 29.7744C14.5491 44.9919 6 65.6312 6 87.1519C6 108.673 14.5491 129.312 29.7665 144.529L45.4015 160.164L160.157 274.919L274.912 160.164L290.547 144.529C298.084 136.996 304.063 128.051 308.142 118.206C312.221 108.361 314.321 97.8086 314.321 87.1519C314.321 76.4952 312.221 65.943 308.142 56.0979C304.063 46.2529 298.084 37.3081 290.547 29.7744Z" stroke="black" stroke-width="11" stroke-linecap="round" stroke-linejoin="round"/>
</svg>
