<svg width="233" height="402" viewBox="0 0 233 402" fill="none" xmlns="http://www.w3.org/2000/svg">
<path d="M29.7793 330.443C27.5432 331.02 25.8171 332.367 24.3068 334.707C21.6743 338.795 21.5414 343.411 23.9671 346.526C24.3485 347.013 25.0159 347.564 25.4424 347.785C30.1107 350.054 36.1445 345.015 36.8729 338.259C37.131 335.78 36.7296 334.084 35.4444 332.267C34.2946 330.662 31.9155 329.892 29.7793 330.443Z" fill="black"/>
<path d="M11.5836 337.012C10.3828 337.149 9.74877 337.466 8.62329 338.438C6.62959 340.137 5.40695 342.523 5.14063 345.29C4.86017 348 5.49244 350.331 6.98645 352.204C8.08146 353.57 8.96787 354.07 10.4725 354.215C15.9158 354.703 20.0382 346.868 17.4772 340.912C17.2077 340.274 16.7624 339.438 16.4689 339.05C15.5616 337.755 13.2787 336.797 11.5836 337.012Z" fill="black"/>
<path d="M45.2103 340.413C42.72 341.002 40.2158 342.544 38.3613 344.617C34.1713 349.311 35.0215 355.445 39.9464 356.261C44.3347 356.99 49.4207 354.112 51.9294 349.49C53.6816 346.255 53.0659 342.539 50.5117 340.96C49.5919 340.403 46.565 340.093 45.2103 340.413Z" fill="black"/>
<path d="M19.1815 355.378C16.4957 355.569 13.4065 356.515 9.89268 358.23C7.48241 359.402 3.23143 362.505 2.45701 363.674C1.82066 364.621 1.44734 366.476 1.70006 367.491C2.37342 370.204 4.2851 371.379 10.1667 372.774C16.2764 374.227 17.8371 375.206 21.3723 379.941C23.4942 382.775 23.9352 383.25 25.2078 383.985C26.5173 384.741 28.7078 385.042 29.8203 384.609C33.0545 383.372 34.5074 378.594 34.0815 370.682C33.8262 365.65 32.6621 362.17 30.3988 359.592C29.065 358.077 27.3445 356.938 25.2707 356.234C23.9337 355.763 20.477 355.268 19.1815 355.378Z" fill="black"/>
<path d="M46.5924 358.829C43.7073 359.271 40.7563 361.004 38.708 363.473C36.6842 365.89 36.5279 369.333 38.355 371.184C40.1838 373.017 44.3239 373.29 47.7785 371.786C50.2188 370.706 52.8141 368.218 53.6989 366.105C54.91 363.232 53.9401 360.365 51.3729 359.325C50.1744 358.831 48.0332 358.625 46.5924 358.829Z" fill="black"/>
<path d="M100.773 291.159C98.5373 291.736 96.8112 293.083 95.3009 295.423C92.6685 299.51 92.5355 304.127 94.9612 307.242C95.3427 307.729 96.01 308.28 96.4365 308.501C101.105 310.77 107.139 305.731 107.867 298.975C108.125 296.496 107.724 294.8 106.439 292.983C105.289 291.377 102.91 290.608 100.773 291.159Z" fill="black"/>
<path d="M82.5777 297.728C81.377 297.864 80.7429 298.182 79.6174 299.154C77.6237 300.853 76.4011 303.239 76.1348 306.005C75.8543 308.716 76.4866 311.047 77.9806 312.92C79.0756 314.286 79.962 314.786 81.4667 314.931C86.9099 315.419 91.0324 307.584 88.4713 301.628C88.2018 300.989 87.7566 300.154 87.463 299.765C86.5558 298.471 84.2728 297.513 82.5777 297.728Z" fill="black"/>
<path d="M116.204 301.129C113.714 301.718 111.21 303.26 109.355 305.333C105.165 310.027 106.016 316.161 110.941 316.977C115.329 317.706 120.415 314.828 122.924 310.206C124.676 306.97 124.06 303.255 121.506 301.676C120.586 301.119 117.559 300.809 116.204 301.129Z" fill="black"/>
<path d="M90.1756 316.093C87.4899 316.285 84.4006 317.23 80.8868 318.945C78.4766 320.118 74.2256 323.221 73.4511 324.389C72.8148 325.337 72.4415 327.192 72.6942 328.207C73.3676 330.92 75.2792 332.095 81.1609 333.49C87.2706 334.943 88.8312 335.921 92.3665 340.657C94.4883 343.491 94.9293 343.966 96.2019 344.701C97.5114 345.457 99.7019 345.758 100.814 345.325C104.049 344.088 105.502 339.31 105.076 331.398C104.82 326.366 103.656 322.885 101.393 320.308C100.059 318.792 98.3387 317.654 96.2648 316.95C94.9279 316.479 91.4711 315.984 90.1756 316.093Z" fill="black"/>
<path d="M117.587 319.544C114.701 319.987 111.75 321.72 109.702 324.189C107.678 326.606 107.522 330.049 109.349 331.9C111.178 333.733 115.318 334.006 118.773 332.501C121.213 331.422 123.808 328.934 124.693 326.821C125.904 323.948 124.934 321.081 122.367 320.041C121.169 319.547 119.027 319.341 117.587 319.544Z" fill="black"/>
<path d="M63.1055 221.187C60.8694 221.764 59.1432 223.111 57.633 225.451C55.0005 229.539 54.8675 234.155 57.2933 237.271C57.6747 237.758 58.342 238.308 58.7685 238.529C63.4368 240.798 69.4707 235.759 70.199 229.003C70.4572 226.524 70.0558 224.828 68.7706 223.011C67.6207 221.406 65.2417 220.636 63.1055 221.187Z" fill="black"/>
<path d="M44.9098 227.756C43.709 227.893 43.0749 228.21 41.9495 229.182C39.9558 230.882 38.7331 233.268 38.4668 236.034C38.1863 238.745 38.8186 241.075 40.3126 242.948C41.4076 244.314 42.294 244.814 43.7987 244.959C49.242 245.447 53.3644 237.613 50.8034 231.656C50.5339 231.018 50.0886 230.182 49.7951 229.794C48.8878 228.5 46.6048 227.541 44.9098 227.756Z" fill="black"/>
<path d="M78.5365 231.157C76.0462 231.746 73.542 233.288 71.6875 235.361C67.4975 240.055 68.3477 246.189 73.2726 247.006C77.6609 247.734 82.7469 244.856 85.2556 240.234C87.0078 236.999 86.3921 233.283 83.8379 231.704C82.918 231.147 79.8912 230.838 78.5365 231.157Z" fill="black"/>
<path d="M52.5076 246.122C49.8219 246.313 46.7327 247.259 43.2189 248.974C40.8086 250.147 36.5576 253.25 35.7832 254.418C35.1468 255.365 34.7735 257.221 35.0262 258.236C35.6996 260.948 37.6113 262.123 43.4929 263.518C49.6026 264.971 51.1633 265.95 54.6985 270.685C56.8203 273.519 57.2614 273.994 58.534 274.729C59.8434 275.486 62.0339 275.787 63.1464 275.353C66.3807 274.116 67.8335 269.338 67.4077 261.426C67.1523 256.394 65.9883 252.914 63.7249 250.336C62.3912 248.821 60.6707 247.682 58.5969 246.978C57.2599 246.507 53.8031 246.012 52.5076 246.122Z" fill="black"/>
<path d="M79.9185 249.573C77.0334 250.015 74.0825 251.749 72.0342 254.217C70.0103 256.634 69.8541 260.077 71.6812 261.928C73.51 263.762 77.6501 264.034 81.1047 262.53C83.545 261.45 86.1403 258.962 87.0251 256.85C88.2362 253.976 87.2662 251.109 84.6991 250.069C83.5006 249.576 81.3594 249.369 79.9185 249.573Z" fill="black"/>
<path d="M144.225 183.779C141.989 184.356 140.262 185.703 138.752 188.043C136.12 192.13 135.987 196.747 138.412 199.862C138.794 200.349 139.461 200.9 139.888 201.121C144.556 203.39 150.59 198.351 151.318 191.595C151.576 189.116 151.175 187.42 149.89 185.603C148.74 183.998 146.361 183.228 144.225 183.779Z" fill="black"/>
<path d="M126.029 190.348C124.828 190.485 124.194 190.802 123.069 191.774C121.075 193.473 119.852 195.859 119.586 198.626C119.305 201.336 119.938 203.667 121.432 205.54C122.527 206.906 123.413 207.406 124.918 207.551C130.361 208.039 134.484 200.204 131.923 194.248C131.653 193.61 131.208 192.774 130.914 192.386C130.007 191.091 127.724 190.133 126.029 190.348Z" fill="black"/>
<path d="M159.656 193.749C157.165 194.338 154.661 195.88 152.807 197.953C148.617 202.647 149.467 208.781 154.392 209.597C158.78 210.326 163.866 207.448 166.375 202.826C168.127 199.59 167.511 195.875 164.957 194.296C164.037 193.739 161.01 193.429 159.656 193.749Z" fill="black"/>
<path d="M133.627 208.714C130.941 208.905 127.852 209.851 124.338 211.566C121.928 212.738 117.677 215.841 116.902 217.01C116.266 217.957 115.893 219.812 116.145 220.827C116.819 223.54 118.73 224.715 124.612 226.11C130.722 227.563 132.282 228.542 135.818 233.277C137.939 236.111 138.381 236.586 139.653 237.321C140.963 238.077 143.153 238.378 144.266 237.945C147.5 236.708 148.953 231.93 148.527 224.018C148.271 218.986 147.107 215.506 144.844 212.928C143.51 211.413 141.79 210.274 139.716 209.57C138.379 209.099 134.922 208.604 133.627 208.714Z" fill="black"/>
<path d="M161.038 212.165C158.153 212.607 155.202 214.34 153.153 216.809C151.129 219.226 150.973 222.669 152.8 224.52C154.629 226.353 158.769 226.626 162.224 225.121C164.664 224.042 167.259 221.554 168.144 219.441C169.355 216.568 168.385 213.701 165.818 212.661C164.62 212.167 162.479 211.961 161.038 212.165Z" fill="black"/>
<path d="M109.959 114.148C107.723 114.725 105.997 116.072 104.486 118.412C101.854 122.5 101.721 127.116 104.147 130.231C104.528 130.719 105.196 131.269 105.622 131.49C110.29 133.759 116.324 128.72 117.053 121.964C117.311 119.485 116.909 117.789 115.624 115.972C114.474 114.367 112.095 113.597 109.959 114.148Z" fill="black"/>
<path d="M91.7633 120.717C90.5625 120.854 89.9285 121.171 88.803 122.143C86.8093 123.843 85.5866 126.228 85.3203 128.995C85.0399 131.706 85.6721 134.036 87.1661 135.909C88.2611 137.275 89.1476 137.775 90.6522 137.92C96.0955 138.408 100.218 130.574 97.6569 124.617C97.3874 123.979 96.9421 123.143 96.6486 122.755C95.7413 121.461 93.4583 120.502 91.7633 120.717Z" fill="black"/>
<path d="M125.39 124.118C122.9 124.707 120.395 126.249 118.541 128.322C114.351 133.016 115.201 139.15 120.126 139.967C124.514 140.695 129.6 137.817 132.109 133.195C133.861 129.96 133.246 126.244 130.691 124.665C129.772 124.108 126.745 123.799 125.39 124.118Z" fill="black"/>
<path d="M99.3612 139.083C96.6754 139.274 93.5862 140.22 90.0724 141.935C87.6621 143.108 83.4111 146.21 82.6367 147.379C82.0003 148.326 81.627 150.181 81.8798 151.196C82.5531 153.909 84.4648 155.084 90.3464 156.479C96.4561 157.932 98.0168 158.911 101.552 163.646C103.674 166.48 104.115 166.955 105.387 167.69C106.697 168.447 108.887 168.748 110 168.314C113.234 167.077 114.687 162.299 114.261 154.387C114.006 149.355 112.842 145.875 110.578 143.297C109.245 141.782 107.524 140.643 105.45 139.939C104.113 139.468 100.657 138.973 99.3612 139.083Z" fill="black"/>
<path d="M126.772 142.534C123.887 142.976 120.936 144.71 118.888 147.178C116.864 149.595 116.708 153.038 118.535 154.889C120.363 156.723 124.504 156.995 127.958 155.491C130.398 154.411 132.994 151.923 133.879 149.811C135.09 146.937 134.12 144.07 131.553 143.03C130.354 142.536 128.213 142.33 126.772 142.534Z" fill="black"/>
<path d="M198.732 77.5103C196.496 78.0875 194.77 79.4343 193.26 81.7745C190.627 85.8619 190.494 90.4782 192.92 93.5938C193.302 94.0808 193.969 94.6314 194.395 94.8526C199.064 97.1214 205.098 92.0827 205.826 85.3262C206.084 82.8474 205.683 81.1516 204.398 79.3347C203.248 77.729 200.869 76.9595 198.732 77.5103Z" fill="black"/>
<path d="M180.537 84.0795C179.336 84.216 178.702 84.5332 177.576 85.5056C175.583 87.2048 174.36 89.5908 174.094 92.357C173.813 95.0679 174.446 97.3983 175.94 99.2713C177.035 100.638 177.921 101.137 179.426 101.282C184.869 101.77 188.991 93.9358 186.43 87.9793C186.161 87.341 185.716 86.5056 185.422 86.117C184.515 84.8229 182.232 83.8645 180.537 84.0795Z" fill="black"/>
<path d="M214.163 87.4807C211.673 88.0694 209.169 89.6115 207.314 91.6844C203.124 96.3783 203.975 102.512 208.9 103.329C213.288 104.058 218.374 101.179 220.883 96.5575C222.635 93.3219 222.019 89.6062 219.465 88.0273C218.545 87.4704 215.518 87.1609 214.163 87.4807Z" fill="black"/>
<path d="M188.135 102.445C185.449 102.637 182.36 103.582 178.846 105.297C176.436 106.47 172.185 109.573 171.41 110.741C170.774 111.688 170.4 113.544 170.653 114.559C171.327 117.271 173.238 118.446 179.12 119.841C185.23 121.294 186.79 122.273 190.325 127.008C192.447 129.843 192.888 130.317 194.161 131.052C195.47 131.809 197.661 132.11 198.773 131.677C202.008 130.439 203.46 125.662 203.035 117.749C202.779 112.717 201.615 109.237 199.352 106.659C198.018 105.144 196.298 104.006 194.224 103.302C192.887 102.831 189.43 102.336 188.135 102.445Z" fill="black"/>
<path d="M215.545 105.896C212.66 106.339 209.709 108.072 207.661 110.54C205.637 112.957 205.481 116.401 207.308 118.252C209.137 120.085 213.277 120.357 216.732 118.853C219.172 117.773 221.767 115.285 222.652 113.173C223.863 110.299 222.893 107.432 220.326 106.392C219.128 105.899 216.986 105.693 215.545 105.896Z" fill="black"/>
<path d="M153.746 11.9605C151.51 12.5377 149.784 13.8844 148.274 16.2247C145.641 20.3121 145.508 24.9284 147.934 28.044C148.315 28.531 148.983 29.0816 149.409 29.3028C154.077 31.5716 160.111 26.5329 160.84 19.7764C161.098 17.2976 160.696 15.6018 159.411 13.7849C158.261 12.1792 155.882 11.4097 153.746 11.9605Z" fill="black"/>
<path d="M135.55 18.5297C134.35 18.6662 133.716 18.9834 132.59 19.9558C130.596 21.655 129.374 24.041 129.107 26.8072C128.827 29.5181 129.459 31.8485 130.953 33.7215C132.048 35.0878 132.935 35.5875 134.439 35.7324C139.883 36.2206 144.005 28.386 141.444 22.4295C141.174 21.7912 140.729 20.9558 140.436 20.5672C139.528 19.273 137.245 18.3147 135.55 18.5297Z" fill="black"/>
<path d="M169.177 21.9309C166.687 22.5196 164.183 24.0617 162.328 26.1346C158.138 30.8285 158.988 36.9625 163.913 37.779C168.301 38.5078 173.388 35.6294 175.896 31.0077C177.648 27.7721 177.033 24.0564 174.479 22.4775C173.559 21.9206 170.532 21.6111 169.177 21.9309Z" fill="black"/>
<path d="M143.148 36.8952C140.463 37.0869 137.373 38.0322 133.859 39.7472C131.449 40.92 127.198 44.023 126.424 45.1912C125.787 46.1386 125.414 47.994 125.667 49.009C126.34 51.7216 128.252 52.8964 134.134 54.2914C140.243 55.7444 141.804 56.7232 145.339 61.4587C147.461 64.2928 147.902 64.7675 149.175 65.5025C150.484 66.2591 152.675 66.5601 153.787 66.1268C157.021 64.8893 158.474 60.1119 158.048 52.1995C157.793 47.1676 156.629 43.6872 154.366 41.1096C153.032 39.5942 151.311 38.4559 149.238 37.7518C147.901 37.2808 144.444 36.7858 143.148 36.8952Z" fill="black"/>
<path d="M170.559 40.3462C167.674 40.7889 164.723 42.522 162.675 44.9906C160.651 47.4074 160.495 50.8507 162.322 52.7018C164.151 54.535 168.291 54.8077 171.745 53.3031C174.186 52.2233 176.781 49.7353 177.666 47.6231C178.877 44.7497 177.907 41.8824 175.34 40.8426C174.141 40.349 172 40.1427 170.559 40.3462Z" fill="black"/>
</svg>
