<svg width="61" height="64" viewBox="0 0 61 64" fill="none" xmlns="http://www.w3.org/2000/svg">
<path d="M28.6077 0.433562C26.0738 1.36635 24.223 3.13486 22.7395 6.03389C20.1546 11.0967 20.5394 16.4827 23.7255 19.8238C24.2261 20.3458 25.0668 20.9084 25.5889 21.1159C31.2849 23.2098 37.7157 16.6428 37.7735 8.69747C37.7841 5.78352 37.119 3.85761 35.4115 1.89406C33.8862 0.160352 31.0286 -0.456829 28.6077 0.433562Z" fill="black"/>
<path d="M8.20892 10.2026C6.82795 10.5017 6.12735 10.9448 4.93163 12.2075C2.8108 14.4174 1.66724 17.336 1.68066 20.5853C1.67116 23.7717 2.67905 26.409 4.63601 28.4134C6.06956 29.875 7.15917 30.3527 8.92655 30.3454C15.3161 30.2773 19.1965 20.6811 15.521 14.0508C15.1329 13.3396 14.5173 12.4198 14.1304 12.0021C12.9237 10.6025 10.1558 9.75435 8.20892 10.2026Z" fill="black"/>
<path d="M47.7268 10.2285C44.8985 11.2044 42.1654 13.291 40.2502 15.9192C35.9242 21.8696 37.63 28.9063 43.455 29.2807C48.6453 29.6158 54.2258 25.6728 56.6043 20.0029C58.2646 16.034 57.1141 11.7832 53.9582 10.2448C52.823 9.70443 49.2655 9.69806 47.7268 10.2285Z" fill="black"/>
<path d="M19.1943 30.6802C16.0922 31.217 12.6088 32.6778 8.72134 35.0836C6.05436 36.7296 1.47152 40.8363 0.707098 42.2859C0.0775016 43.4624 -0.139997 45.6645 0.272621 46.8158C1.37296 49.8929 3.73423 51.0362 10.7398 51.9718C18.0174 52.9482 19.9473 53.9046 24.6135 59.0005C27.4132 62.0497 27.9817 62.5505 29.5481 63.2568C31.1599 63.9839 33.7434 64.0781 34.9871 63.4441C38.605 61.6264 39.737 55.8988 38.317 46.7436C37.4319 40.9194 35.671 37.0065 32.7366 34.2723C31.0079 32.6652 28.8733 31.542 26.3784 30.9652C24.768 30.5735 20.6887 30.4016 19.1943 30.6802Z" fill="black"/>
<path d="M51.4853 31.4913C48.1806 32.3434 44.9501 34.7046 42.8557 37.8158C40.7836 40.8639 41.0042 44.888 43.3461 46.828C45.6879 48.747 50.5362 48.5804 54.3794 46.4264C57.0921 44.8849 59.8207 41.6873 60.6032 39.1266C61.6764 35.6422 60.2129 32.4199 57.1049 31.5102C55.6529 31.0759 53.1378 31.0863 51.4853 31.4913Z" fill="black"/>
</svg>
