<svg width="70" height="155" viewBox="0 0 70 155" fill="none" xmlns="http://www.w3.org/2000/svg">
<path d="M28.6077 91.4336C26.0738 92.3663 24.223 94.1349 22.7395 97.0339C20.1546 102.097 20.5394 107.483 23.7255 110.824C24.2261 111.346 25.0668 111.908 25.5889 112.116C31.2849 114.21 37.7157 107.643 37.7735 99.6975C37.7841 96.7835 37.119 94.8576 35.4115 92.8941C33.8862 91.1604 31.0286 90.5432 28.6077 91.4336Z" fill="black"/>
<path d="M8.20892 101.203C6.82795 101.502 6.12735 101.945 4.93163 103.208C2.8108 105.417 1.66724 108.336 1.68066 111.585C1.67116 114.772 2.67905 117.409 4.63601 119.413C6.06956 120.875 7.15917 121.353 8.92655 121.345C15.3161 121.277 19.1965 111.681 15.521 105.051C15.1329 104.34 14.5173 103.42 14.1304 103.002C12.9237 101.602 10.1558 100.754 8.20892 101.203Z" fill="black"/>
<path d="M47.7268 101.228C44.8985 102.204 42.1654 104.291 40.2502 106.919C35.9242 112.87 37.63 119.906 43.455 120.281C48.6453 120.616 54.2258 116.673 56.6043 111.003C58.2646 107.034 57.1141 102.783 53.9582 101.245C52.823 100.704 49.2655 100.698 47.7268 101.228Z" fill="black"/>
<path d="M19.1943 121.68C16.0922 122.217 12.6088 123.678 8.72134 126.084C6.05436 127.73 1.47152 131.836 0.707098 133.286C0.0775016 134.462 -0.139997 136.664 0.272621 137.816C1.37296 140.893 3.73423 142.036 10.7398 142.972C18.0174 143.948 19.9473 144.905 24.6135 150.001C27.4132 153.05 27.9817 153.55 29.5481 154.257C31.1599 154.984 33.7434 155.078 34.9871 154.444C38.605 152.626 39.737 146.899 38.317 137.744C37.4319 131.919 35.671 128.006 32.7366 125.272C31.0079 123.665 28.8733 122.542 26.3784 121.965C24.768 121.574 20.6887 121.402 19.1943 121.68Z" fill="black"/>
<path d="M51.4853 122.491C48.1806 123.343 44.9501 125.705 42.8557 128.816C40.7836 131.864 41.0042 135.888 43.3461 137.828C45.6879 139.747 50.5362 139.58 54.3794 137.426C57.0921 135.885 59.8207 132.687 60.6032 130.127C61.6764 126.642 60.2129 123.42 57.1049 122.51C55.6529 122.076 53.1378 122.086 51.4853 122.491Z" fill="black"/>
<path d="M37.6077 0.433562C35.0738 1.36635 33.223 3.13486 31.7395 6.03389C29.1546 11.0967 29.5394 16.4827 32.7255 19.8238C33.2261 20.3458 34.0668 20.9084 34.5889 21.1159C40.2849 23.2098 46.7157 16.6428 46.7735 8.69747C46.7841 5.78352 46.119 3.85761 44.4115 1.89406C42.8862 0.160352 40.0286 -0.456829 37.6077 0.433562Z" fill="black"/>
<path d="M17.2089 10.2026C15.828 10.5017 15.1274 10.9448 13.9316 12.2075C11.8108 14.4174 10.6672 17.336 10.6807 20.5853C10.6712 23.7717 11.679 26.409 13.636 28.4134C15.0696 29.875 16.1592 30.3527 17.9266 30.3454C24.3161 30.2773 28.1965 20.6811 24.521 14.0508C24.1329 13.3396 23.5173 12.4198 23.1304 12.0021C21.9237 10.6025 19.1558 9.75435 17.2089 10.2026Z" fill="black"/>
<path d="M56.7268 10.2285C53.8985 11.2044 51.1654 13.291 49.2502 15.9192C44.9242 21.8696 46.63 28.9063 52.455 29.2807C57.6453 29.6158 63.2258 25.6728 65.6043 20.0029C67.2646 16.034 66.1141 11.7832 62.9582 10.2448C61.823 9.70443 58.2655 9.69806 56.7268 10.2285Z" fill="black"/>
<path d="M28.1943 30.6802C25.0922 31.217 21.6088 32.6778 17.7213 35.0836C15.0544 36.7296 10.4715 40.8363 9.7071 42.2859C9.0775 43.4624 8.86 45.6645 9.27262 46.8158C10.373 49.8929 12.7342 51.0362 19.7398 51.9718C27.0174 52.9482 28.9473 53.9046 33.6135 59.0005C36.4132 62.0497 36.9817 62.5505 38.5481 63.2568C40.1599 63.9839 42.7434 64.0781 43.9871 63.4441C47.605 61.6264 48.737 55.8988 47.317 46.7436C46.4319 40.9194 44.671 37.0065 41.7366 34.2723C40.0079 32.6652 37.8733 31.542 35.3784 30.9652C33.768 30.5735 29.6887 30.4016 28.1943 30.6802Z" fill="black"/>
<path d="M60.4853 31.4913C57.1806 32.3434 53.9501 34.7046 51.8557 37.8158C49.7836 40.8639 50.0042 44.888 52.3461 46.828C54.6879 48.747 59.5362 48.5804 63.3794 46.4264C66.0921 44.8849 68.8207 41.6873 69.6032 39.1266C70.6764 35.6422 69.2129 32.4199 66.1049 31.5102C64.6529 31.0759 62.1378 31.0863 60.4853 31.4913Z" fill="black"/>
</svg>
